<?xml version="1.0" encoding="iso-8859-1"?>
<!-- Generator: Adobe Illustrator 16.0.0, SVG Export Plug-In . SVG Version: 6.00 Build 0)  -->
<!DOCTYPE svg PUBLIC "-//W3C//DTD SVG 1.1//EN" "http://www.w3.org/Graphics/SVG/1.1/DTD/svg11.dtd">
<svg xmlns="http://www.w3.org/2000/svg" xmlns:xlink="http://www.w3.org/1999/xlink" version="1.1" id="Capa_1" x="0px" y="0px" width="512px" height="512px" viewBox="0 0 472.803 472.803" style="enable-background:new 0 0 472.803 472.803;" xml:space="preserve">
<g>
	<g>
		<path d="M472.278,268.52c-1.892-8.39-8.701-13.673-18.662-15.863c-8.3-1.823-22.876-1.782-45.188,8.769    c-1.556,0.675-104.735,44.701-123.989,52.958c-2.967,1.271-3.99,5.469-3.99,5.469c-25.576,70.355-98.694,41.184-98.611,40.225    c37.788,1.633,64.782-19.084,72.953-35.284c19.082-37.834-23.783-32.886-47.162-33.147    c-87.568-0.986-86.284,20.484-133.243,36.156L3.197,355.247c-1.821,0.747-2.657,2.396-3.045,4.142    c-0.388,1.747-0.024,3.576,1.003,5.041l4.672,6.664c11.646,16.611,25.414,42.191,37.538,58.932    c0.781,1.078,1.881,1.885,3.146,2.307c0.28,0.096,0.65,0.203,1.106,0.305c1.631,0.357,3.384,0.391,4.734,0.074l52.066-13.131    c2.738-0.65,134.545,39.92,185.167,4.668l155.765-118.11c6.157-4.872,12.523-9.909,18.881-14.843    C471.169,285.908,474.088,276.546,472.278,268.52z" fill="#FFFFFF"/>
		<g>
			<path d="M289.234,34.139c-35.014,0-64.743,22.541-75.523,53.895c33.164,9.711,57.394,40.336,57.394,76.64     c0,9.097-1.542,17.828-4.343,25.974c7.131,2.088,14.667,3.228,22.474,3.228c44.111,0,79.87-35.758,79.87-79.868     S333.346,34.139,289.234,34.139z M305.269,157.252c0,3.267-2.648,5.916-5.915,5.916h-10.896c-3.267,0-5.914-2.648-5.914-5.916     V90.865l-6.743,3.64c-1.604,0.866-3.52,0.944-5.188,0.211s-2.908-2.195-3.355-3.962l-2.153-8.485     c-0.668-2.635,0.545-5.387,2.942-6.669l18.78-10.052c0.858-0.459,1.817-0.7,2.791-0.7h9.735c3.267,0,5.915,2.647,5.915,5.915     v86.489H305.269z" fill="#FFFFFF"/>
		</g>
		<path d="M179.735,93.472c-43.005,0-77.867,34.863-77.867,77.868s34.862,77.868,77.867,77.868c43.006,0,77.87-34.863,77.87-77.868    S222.741,93.472,179.735,93.472z M195.367,213.502c0,3.186-2.583,5.768-5.767,5.768h-10.623c-3.185,0-5.767-2.582-5.767-5.768    v-64.725l-6.574,3.549c-1.564,0.845-3.431,0.92-5.058,0.206s-2.835-2.14-3.272-3.862l-2.099-8.273    c-0.651-2.569,0.532-5.252,2.869-6.502l18.311-9.801c0.837-0.448,1.771-0.683,2.721-0.683h9.492c3.185,0,5.767,2.582,5.767,5.767    V213.502z" fill="#FFFFFF"/>
	</g>
</g>
<g>
</g>
<g>
</g>
<g>
</g>
<g>
</g>
<g>
</g>
<g>
</g>
<g>
</g>
<g>
</g>
<g>
</g>
<g>
</g>
<g>
</g>
<g>
</g>
<g>
</g>
<g>
</g>
<g>
</g>
</svg>
